<svg id="图层_1" data-name="图层 1" xmlns="http://www.w3.org/2000/svg" viewBox="0 0 512 512"><defs><style>.cls-1{fill:#fec007;}.cls-2{fill:#fefefd;}.cls-3{fill:#f9f9f8;}.cls-4{fill:#ebeded;}</style></defs><title>help</title><path class="cls-1" d="M379,144h41a10.48,10.48,0,0,0,2.57,1c38.75,3.45,75.09,14.75,108.17,35.15C599.09,222.29,640.25,283,653.16,362.53c1,6.15,1.9,12.31,2.84,18.47v39c-.76,4.83-1.59,9.66-2.28,14.51-7.35,51.49-28,96.93-62.76,135.62-41.07,45.73-92.11,73.55-153,83-6.32,1-12.64,1.93-19,2.89H380a30.73,30.73,0,0,0-3.6-1c-9.85-1.55-19.82-2.57-29.56-4.64q-73.21-15.54-126.45-68.27Q160,522.2,146.86,437.91C146,432.26,145,426.64,144,421V379c.75-4.49,1.59-9,2.24-13.47,8-55.44,31.2-103.54,70.3-143.69q60.15-61.76,145.55-75C367.74,146,373.36,145,379,144Zm-.19,291.42c0,2.83-.12,5.67,0,8.5a21.19,21.19,0,0,0,42.32,0c.17-3.33,0-6.67.11-10,.27-9.3,4.36-16.26,12.87-20.34a108,108,0,0,0,39.67-32.82c12.69-16.76,22.17-35,22.11-56.65-.17-70.18-75.81-116.55-138.56-84.54-34.56,17.63-52.23,46.83-53.28,85.71-.3,10.88,7.42,19.35,18.19,21.13a20.93,20.93,0,0,0,23.11-14.13,39.81,39.81,0,0,0,1.45-9.32c1.63-22.42,12.76-38.48,33.4-46.86,20.95-8.52,40.38-4.32,56.82,11.12,18.36,17.24,20.83,40.91,7.07,62a72.86,72.86,0,0,1-28.45,25.94C391,387.56,379,407.93,378.81,435.42Zm42.4,92.76a21.22,21.22,0,1,0-21.4,21A20.95,20.95,0,0,0,421.21,528.18Z" transform="translate(-144 -144)"/><path class="cls-2" d="M144,421c1,5.64,2,11.26,2.86,16.91q12.94,84.22,73.53,144.14,53.12,52.61,126.45,68.27c9.74,2.07,19.71,3.09,29.56,4.64a30.73,30.73,0,0,1,3.6,1H144Z" transform="translate(-144 -144)"/><path class="cls-2" d="M419,656c6.32-1,12.64-1.91,19-2.89,60.89-9.43,111.93-37.25,153-83,34.74-38.69,55.41-84.13,62.76-135.62.69-4.85,1.52-9.68,2.28-14.51V656Z" transform="translate(-144 -144)"/><path class="cls-2" d="M656,381c-.94-6.16-1.84-12.32-2.84-18.47C640.25,283,599.09,222.29,530.74,180.12c-33.08-20.4-69.42-31.7-108.17-35.15a10.48,10.48,0,0,1-2.57-1H656Z" transform="translate(-144 -144)"/><path class="cls-2" d="M379,144c-5.64,1-11.26,2-16.91,2.86q-85.29,13.2-145.55,75c-39.1,40.15-62.27,88.25-70.3,143.69-.65,4.5-1.49,9-2.24,13.47V144Z" transform="translate(-144 -144)"/><path class="cls-3" d="M378.81,435.42c.18-27.49,12.2-47.86,36.86-60.33a72.86,72.86,0,0,0,28.45-25.94c13.76-21,11.29-44.72-7.07-62-16.44-15.44-35.87-19.64-56.82-11.12-20.64,8.38-31.77,24.44-33.4,46.86a39.81,39.81,0,0,1-1.45,9.32,20.93,20.93,0,0,1-23.11,14.13c-10.77-1.78-18.49-10.25-18.19-21.13,1.05-38.88,18.72-68.08,53.28-85.71,62.75-32,138.39,14.36,138.56,84.54.06,21.63-9.42,39.89-22.11,56.65a108,108,0,0,1-39.67,32.82c-8.51,4.08-12.6,11-12.87,20.34-.1,3.33.06,6.67-.11,10a21.19,21.19,0,0,1-42.32,0C378.69,441.09,378.81,438.25,378.81,435.42Z" transform="translate(-144 -144)"/><path class="cls-4" d="M421.21,528.18a21.22,21.22,0,1,1-21-21.4A21,21,0,0,1,421.21,528.18Z" transform="translate(-144 -144)"/></svg>