<svg id="图层_1" data-name="图层 1" xmlns="http://www.w3.org/2000/svg" viewBox="0 0 784.71 749.29"><defs><style>.cls-1{fill:#014680;}.cls-2{fill:#024780;}.cls-3{fill:#034881;}</style></defs><title>logo</title><path class="cls-1" d="M8.75,647.65v-487C20.89,115.1,44.58,77.16,85.94,53.35c20.35-11.71,43.51-18.56,65.4-27.6H657.91c23.12,10,47.55,17.8,69.06,30.53,38.16,22.57,65,56.15,65.46,101.72,1.44,158,0,315.92,1,473.88.19,28.74-5.87,53.89-22.3,77-29,40.72-66.67,66.07-118.28,66.1q-254.2.18-508.42,0c-6.74,0-14.06.17-20.13-2.22C76.38,753.88,37.8,724.66,18.8,674.63,15.4,665.66,12.1,656.65,8.75,647.65Zm353.51,67.1c7.48-46.58,17.25-59.33,43.78-58.8,24,.48,33.84,14.51,40,58.28,62.13,0,124.73,3.61,186.7-1.08,55.44-4.19,98.46-49.15,99.48-98.28,1.74-84.22,1.37-168.52-.57-252.73-.25-11-13-25.65-23.76-31-8.1-4.06-23.45,1.83-33.5,7.18C659.81,346,647.2,357.37,633.65,367,576.53,407.66,512.77,429.19,443,435.39,338.76,444.65,244.59,419.24,160.43,357c-8.46-6.25-17.59-11.75-25.34-18.78-12.1-11-25.64-13.71-39.5-6.33C82,339.14,79.89,352.7,80,367.37q.57,119.82.14,239.66C80,671.93,120.74,709.82,181.4,713.88,241.12,717.88,301.31,714.75,362.26,714.75ZM133,232.09c92.47,97.11,220.89,136,348.21,111.53C546,331.16,659,267.35,677.11,229.32,494.64,357.59,314.1,359,133,232.09Z" transform="translate(-8.75 -25.75)"/><path class="cls-2" d="M320.43,570.75c1.39,17.52,1.89,38.69-25.67,48C267,628.1,242,612.35,241.3,583.13c-.3-13.11-.52-26.24.07-39.33,1-22.28,16.72-36.32,39.28-35.89,20.23.39,42.52,15.43,39.9,37.36C319.75,552,320.43,559,320.43,570.75Z" transform="translate(-8.75 -25.75)"/><path class="cls-3" d="M491.29,564.85c0-4.37,0-8.74,0-13.1.25-29.41,12-44,36.37-43.71,26.74.29,44,15.14,43.69,43.95-.11,9.36-.21,18.73,0,28.08.64,26.75-22.45,41.23-43.22,41.4-23.06.18-36.42-15.14-36.84-41.65C491.23,574.83,491.29,569.84,491.29,564.85Z" transform="translate(-8.75 -25.75)"/></svg>