<svg id="图层_1" data-name="图层 1" xmlns="http://www.w3.org/2000/svg" viewBox="0 0 383.2 367.39"><title>github</title><path d="M208.75,393.64c1-6.77,1.68-13.57,2.92-20.28,9.23-49.94,34.72-89.77,75.67-119.48,37.21-27,79.22-38.69,125-36,89.6,5.26,162.13,71.41,176.85,155.85,14.32,82.11-28.4,164.92-103.79,200.36-7.31,3.44-15,6.19-22.44,9.24a19.51,19.51,0,0,1-2.48.83c-7.83,2-13.09-2-13.09-10.08,0-16.47.1-32.93.12-49.4a73.09,73.09,0,0,0-.33-7.84c-1.1-10.39-4.26-19.93-11.84-27.46,9.24-1.95,18.42-3.42,27.35-5.86,34.57-9.42,55.06-33.83,58.12-69.56a170.9,170.9,0,0,0,0-30.18c-1.24-13.63-7.46-25.47-16.31-35.85-1.42-1.67-1.94-3-1.23-5.27,4.66-15.12,3.21-30-1.93-44.77-1.11-3.18-3.62-3-5.71-2.6-7.15,1.49-14.55,2.61-21.23,5.37-8.24,3.4-15.81,8.39-23.79,12.46a9.19,9.19,0,0,1-5.81.93,186,186,0,0,0-89.62,0,8.44,8.44,0,0,1-5.77-1c-11.94-7.32-24.08-14.12-38-17-11.09-2.29-12.39-1.53-15.13,9.29-3.24,12.84-3.58,25.62.72,38.34a3.85,3.85,0,0,1-.59,3.2c-16.39,18.43-20.17,40.24-17.63,63.91,1.6,14.95,5.17,29.2,13.5,41.91,11.14,17,27.54,26.36,46.66,31.42,8.36,2.21,16.95,3.55,25.74,5.34-6.32,6.43-9.63,14.32-11.26,23.06a4.12,4.12,0,0,1-2.3,2.48c-20.3,8-40.66,5.11-53.58-16.13-6.35-10.44-15.21-17.8-27.82-19.44a20.73,20.73,0,0,0-7,.44c-3.65.79-4.29,3.11-1.71,6a21.89,21.89,0,0,0,4.83,4.08,48.17,48.17,0,0,1,20.75,25.28c9,24.19,31.19,32.23,53.54,30.07,4-.39,7.9-1,12.11-1.59.1.91.28,1.84.3,2.78.11,9,.22,18,.27,26.94,0,9.25-5.8,13.69-14.49,10.53-65.65-23.87-107.88-69.2-125-137.24-2.14-8.53-2.71-17.45-4-26.2-.18-1.2-.43-2.4-.64-3.6Z" transform="translate(-208.75 -217.5)"/></svg>