<svg id="图层_1" data-name="图层 1" xmlns="http://www.w3.org/2000/svg" viewBox="0 0 409.6 409.6"><defs><style>.cls-1{fill:#fefefe;}.cls-2{fill:#feb60d;}.cls-3{fill:#52a5d7;}.cls-4{fill:#fefdfd;}.cls-5{fill:#70b4e7;}.cls-6{fill:#666;}.cls-7{fill:#52a4d7;}.cls-8{fill:#535454;}.cls-9{fill:#f2a405;}.cls-10{fill:#f8f7f4;}.cls-11{fill:#f8f7f3;}.cls-12{fill:#3194c6;}.cls-13{fill:#f8b614;}.cls-14{fill:#f3f5f7;}.cls-15{fill:#82c5ed;}.cls-16{fill:#f2f5f7;}.cls-17{fill:#f1f5f7;}.cls-18{fill:#f4f6f8;}.cls-19{fill:#83c6ee;}.cls-20{fill:#f6f7f8;}.cls-21{fill:#7d7e7e;}.cls-22{fill:#f9b410;}.cls-23{fill:#f34b47;}.cls-24{fill:#90b322;}.cls-25{fill:#fff;}</style></defs><title>luagen</title><path class="cls-1" d="M604.6,529.55V604.6H195V195H604.6V336.32c-3.12-5.69-8-7.57-14.3-7.1-4.63.35-9.31.08-14,.07l-53.08-.2-.09-36.7q0-22.12-.06-44.26a10.71,10.71,0,0,0-.51-2.71C519.38,233.63,510.2,227,497,227q-101.52,0-203-.07c-18.35,0-36.7.07-55,.11-6.24,0-12.48-.23-18.7,0-16.13.64-23.54,10.76-24.15,22-.78,14.41-.15,28.91-.12,43.37,0,1.19-.12,2.39-.12,3.58q0,125.85,0,251.71c0,1.06,0,2.12.05,3.19A24,24,0,0,0,219,573.44c6.91.14,13.82,0,20.73,0,.8.05,1.59.13,2.39.13l253.63,0c1.33,0,2.66,0,4,0a24,24,0,0,0,23.55-24.19c0-4.12,0-8.24,0-12.36,22.56,0,45.13-.27,67.69,0C597.21,536.94,601.76,535.19,604.6,529.55Z" transform="translate(-195 -195)"/><path class="cls-2" d="M604.6,529.55c-2.84,5.64-7.39,7.39-13.64,7.32-22.56-.24-45.13,0-67.69,0-1.2,0-2.39-.14-3.58-.14H335.5c-1.6,0-3.19-.07-4.78-.11-5.9-3-7.22-8.16-7.2-14.21.09-19.24.06-38.48,0-57.71,0-6,1.22-11.27,7.19-14.2.52,0,1-.15,1.58-.15l186.18.05c1.59,0,3.19-.09,4.78-.15,22.6.06,45.21.28,67.81.05,6.24-.06,10.77,1.68,13.52,7.37ZM370,523.16c2.65-.09,4.53-1.92,5.58-4.79,5.51-15.1,11.06-30.18,16.5-45.3,1.44-4,0-7.4-3.26-8.69-3.49-1.37-6.75.33-8.4,4.56-1.45,3.71-2.74,7.48-4.1,11.23-4.08,11.23-8.2,22.45-12.21,33.71C362.28,518.89,364.78,523.08,370,523.16Zm-23.82-30.94c3.91-3.69,7.47-6.86,10.8-10.26,3.09-3.15,3.22-6.55.69-9.2s-6.3-2.49-9.51.63q-6.86,6.67-13.53,13.53c-3.72,3.8-3.72,6.83,0,10.68q6.52,6.72,13.26,13.24c3.45,3.37,7.15,3.59,9.8.78s2.3-6.09-1.08-9.48C353.39,498.94,350,495.92,346.13,492.22Zm65.11-.09c-4,3.84-7.39,6.88-10.56,10.08-3.37,3.38-3.62,6.72-1,9.46s6.24,2.54,9.5-.61q6.88-6.65,13.54-13.52c3.71-3.82,3.66-6.85-.09-10.68-4.36-4.46-8.79-8.87-13.24-13.24-3.35-3.28-6.78-3.62-9.49-1.06-2.89,2.74-2.72,6.23.79,9.76C403.9,485.51,407.31,488.48,411.24,492.13Z" transform="translate(-195 -195)"/><path class="cls-3" d="M523.25,329.09l53.08.2c4.66,0,9.34.28,14-.07,6.3-.47,11.18,1.41,14.3,7.1V409c-3.19,6-8.52,7.17-14.76,7-10.51-.22-21-.09-31.53,0-11.7,0-23.39.15-35.09.23q-11.76,0-23.52,0l-169.82-.05c-7.43-5.86-6.36-14.12-6.33-22.14.05-15.7.2-31.4-.07-47.1-.12-7.1.63-13.48,7.2-17.69l4,0Zm-20.06,64.6c12.63,0,25.26,0,37.9,0,1.57,0,3.57.18,4.62-.66,1.7-1.35,3.87-3.5,3.84-5.29,0-2-2.07-4.16-3.67-5.84-.73-.76-2.51-.7-3.81-.7q-38.9,0-77.8,0c-1.29,0-3.06,0-3.8.75-1.52,1.59-3.46,3.72-3.43,5.59s2,4.1,3.64,5.43c1.15.9,3.3.7,5,.71C478.19,393.71,490.69,393.69,503.19,393.69Zm-82.8-42.15H382.48c-3,0-6,.93-6.64,3.94a8.77,8.77,0,0,0,1.63,6.73c1.2,1.39,4.07,1.82,6.2,1.83,24.34.12,48.67.09,73,0,1.57,0,3.56.1,4.61-.75,1.71-1.39,3.82-3.49,3.89-5.35s-1.86-4.18-3.52-5.57c-1.11-.94-3.27-.84-5-.85C444.59,351.51,432.49,351.54,420.39,351.54Zm131.84,0c-6,0-12,0-18,0-4.59,0-7.09,2.25-7.15,6.16s2.2,6.44,6.83,6.5q18,.24,35.91,0c4.29-.05,7.4-3,7.35-6.38s-3.42-6.26-7.82-6.29C563.67,351.47,558,351.5,552.23,351.5Zm-54.83,0c-3.59,0-7.18-.08-10.76,0-4.13.12-6.91,2.67-7,6.16-.06,3.28,2.5,6.15,6.44,6.27,7.7.23,15.41.25,23.1,0a5.89,5.89,0,0,0,6.06-6.5c-.14-3.48-2.62-5.76-6.7-5.9C504.84,351.45,501.11,351.55,497.4,351.54Zm-69.49,42.25c3.45,0,6.9.07,10.35,0,5-.13,7.44-2.26,7.47-6.26s-2.39-6.34-7.29-6.42q-10.35-.18-20.7,0c-4.62.09-7.13,2.42-7.17,6.24-.05,4,2.55,6.3,7.4,6.44C421.28,393.87,424.6,393.79,427.91,393.79Zm-84.48-29.58a67.24,67.24,0,0,0,7-.51c3.34-.55,5.11-2.77,5-6.14s-2-5.48-5.06-5.72a91.15,91.15,0,0,0-14.31,0c-3.14.24-5,2.69-5.05,5.77a5.65,5.65,0,0,0,5.12,6.12C338.54,364.1,340.94,364.06,343.43,364.21Zm42.89,17a56.38,56.38,0,0,0-6.37,0c-3.52.41-6.24,3.32-5.94,6.36.35,3.48,2.47,5.71,5.92,5.95a83.48,83.48,0,0,0,12.75,0c3.32-.27,5.69-2.23,5.88-5.91.17-3.28-2.15-5.91-5.86-6.38A52.2,52.2,0,0,0,386.32,381.21ZM343.11,394.1l0-.33a36.87,36.87,0,0,0,6-.06c3.12-.53,5.93-1.75,6.36-5.5s-1.54-6.31-4.84-6.61a61.18,61.18,0,0,0-15.3.43c-1.69.28-4,3.52-4,5.4s2.19,4.46,4.09,5.45C337.58,394,340.5,393.76,343.11,394.1Zm234.21-6.78a6.55,6.55,0,0,0-6.24-6.09,6.48,6.48,0,0,0-6.23,6.49,6.64,6.64,0,0,0,6.42,5.94A6.71,6.71,0,0,0,577.32,387.32Z" transform="translate(-195 -195)"/><path class="cls-4" d="M523.22,416.2c11.7-.08,23.39-.19,35.09-.23,10.51,0,21-.17,31.53,0,6.24.13,11.57-1.06,14.76-7v48.71c-2.75-5.69-7.28-7.43-13.52-7.37-22.6.23-45.21,0-67.81-.05Q523.24,433.23,523.22,416.2Z" transform="translate(-195 -195)"/><path class="cls-5" d="M523.22,416.2q0,17,0,34.07c-1.59.06-3.19.15-4.78.15l-186.18-.05c-.53,0-1.06.1-1.58.15-7.05,0-14.09-.21-21.14-.13-6.32.08-10.33,4.12-10.65,10.46-.1,2.13,0,4.26,0,6.39,0,19.15.15,38.3-.09,57.46-.07,6.22,4,12.69,12,12.17,6.62-.44,13.28-.18,19.93-.23,1.59,0,3.18.11,4.78.11H519.69c1.19,0,2.38.09,3.58.14,0,4.12,0,8.24,0,12.36a24,24,0,0,1-23.55,24.19c-1.32,0-2.65,0-4,0l-253.63,0c-.8,0-1.59-.08-2.39-.13-14.6-5.28-19.31-16.14-19.26-31,.28-83.26.12-166.53.12-249.79,1.85-.06,3.71-.16,5.57-.17l297,0,.09,36.7-188.58.06-4,0c-6.64,0-13.27,0-19.91,0-7.21,0-11.89,4.65-11.91,12q-.08,31.45,0,62.92c0,7.36,4.61,12,11.91,12,6.37.06,12.74,0,19.11,0l169.82.05Q511.46,416.16,523.22,416.2ZM237.94,484.07c-2,0-4-.09-6,0-3.62.18-6.45,2.58-6.48,5.73,0,3.45,1.77,6.09,5.26,6.37a87.19,87.19,0,0,0,14.18-.05c3.51-.31,5.38-2.87,5.06-6.41s-2.64-5.37-6.11-5.63C241.92,484,239.92,484.08,237.94,484.07Zm-.21,42.51a53,53,0,0,0,7.06-.83c3.18-.79,5.51-2.66,5.28-6.4s-3.1-5.29-6.18-5.62a63.39,63.39,0,0,0-12.32,0,6.38,6.38,0,0,0-6,5.94c-.24,3.18,1.88,5.48,5.13,6.13C233,526.24,235.34,526.32,237.73,526.58Zm.18-160.79c-2.13,0-4.26-.08-6.38,0a6.12,6.12,0,0,0-6.07,5.66,6,6,0,0,0,5.43,6.28,117.7,117.7,0,0,0,13.93,0,5.72,5.72,0,0,0,5.2-6.42c-.38-3.31-2.33-5.29-5.74-5.48C242.16,365.71,240,365.8,237.91,365.79Zm0,71.2v0c2.12,0,4.25.08,6.37,0,3.43-.16,5.36-2.16,5.77-5.44a5.71,5.71,0,0,0-5.16-6.45,99,99,0,0,0-14.31,0c-3.38.27-5.13,3-5,6.18s2,5.47,5.54,5.65C233.36,437.08,235.62,437,237.88,437Zm0-29.61c2.12,0,4.25.06,6.37,0a6,6,0,0,0,.24-11.93c-4.38-.11-8.77-.14-13.15,0a5.88,5.88,0,0,0-5.91,5.83c-.09,3.32,2.41,5.88,6.07,6.08C233.64,407.47,235.77,407.38,237.9,407.38Zm-.37-59.08c2.13,0,4.26.09,6.38,0a6.12,6.12,0,0,0,6.18-6.41c-.05-3.17-2.7-5.49-6.42-5.53q-6-.06-12,0a6,6,0,0,0-6.26,5.79c-.08,3,2.78,6,6.1,6.16C233.54,348.38,235.53,348.3,237.53,348.3Zm0,118.17c2.13,0,4.25,0,6.37,0,3.42-.08,6-2.38,6.19-5.36a6.06,6.06,0,0,0-6-6.57c-4.24-.17-8.5-.15-12.74,0-2.92.1-5.91,3.33-5.92,6a6,6,0,0,0,6.12,5.93C233.55,466.51,235.54,466.47,237.53,466.47Z" transform="translate(-195 -195)"/><path class="cls-6" d="M523.16,292.39l-297,0c-1.86,0-3.72.11-5.57.17l0-.31c0-12.6-.18-25.2,0-37.8.19-11.76,4-21.77,17.51-26.16.36-.12.53-.83.79-1.26,18.34,0,36.69-.11,55-.11q101.51,0,203,.07c13.23,0,22.41,6.62,25.62,18.41a10.71,10.71,0,0,1,.51,2.71Q523.17,270.27,523.16,292.39ZM373.1,266.06h67.8a35.65,35.65,0,0,0,5.57-.08c2.93-.46,5.25-1.85,5.63-5.2s-.66-6.06-4.37-6.89a20.21,20.21,0,0,0-4.3-.57q-70.38,0-140.78,0c-1.94,0-4.3.07-5.72,1.12-1.67,1.23-3.49,3.58-3.45,5.41s2,4.07,3.66,5.31c1.3,1,3.54.84,5.36.85Q337.79,266.11,373.1,266.06Zm107.5,0c3.73,0,7.46,0,11.18,0,4.45,0,7-2,7.41-5.59s-1.45-6.52-6.08-6.8a244.33,244.33,0,0,0-25.1-.1,6.14,6.14,0,0,0-6,6.65,7,7,0,0,0,7,5.83C472.89,266.13,476.75,266.06,480.6,266.06Zm-221.84-6.37a6.41,6.41,0,0,0-6.16-6.12,6.58,6.58,0,0,0-6.24,6.09,6.49,6.49,0,0,0,6.42,6.32A6.42,6.42,0,0,0,258.76,259.69Zm-27-6.23a6.27,6.27,0,0,0-.28,12.53,6.62,6.62,0,0,0,6.41-6.28C237.93,256.79,234.73,253.52,231.8,253.46Zm35.79,6A6.13,6.13,0,0,0,273.5,266a6.29,6.29,0,0,0,.06-12.58C270.51,253.27,267.65,256.17,267.59,259.48Z" transform="translate(-195 -195)"/><path class="cls-7" d="M220.54,292.58c0,83.26.16,166.53-.12,249.79,0,14.9,4.66,25.76,19.26,31-6.91,0-13.82.17-20.73,0a24,24,0,0,1-23.09-22.57c-.06-1.07-.05-2.13-.05-3.19q0-125.86,0-251.71c0-1.19.08-2.39.12-3.58l24.65-.12Z" transform="translate(-195 -195)"/><path class="cls-8" d="M220.58,292.27l-24.65.12c0-14.46-.66-29,.12-43.37.61-11.2,8-21.32,24.15-22,6.22-.24,12.46,0,18.7,0-.26.43-.43,1.14-.79,1.26-13.53,4.39-17.32,14.4-17.51,26.16C220.4,267.07,220.57,279.67,220.58,292.27Z" transform="translate(-195 -195)"/><path class="cls-9" d="M330.72,536.64c-6.65.05-13.31-.21-19.93.23-8,.52-12-6-12-12.17.24-19.16.09-38.31.09-57.46,0-2.13-.08-4.26,0-6.39.32-6.34,4.33-10.38,10.65-10.46,7.05-.08,14.09.08,21.14.13-6,2.93-7.21,8.19-7.19,14.2,0,19.23.07,38.47,0,57.71C323.5,528.48,324.82,533.67,330.72,536.64Z" transform="translate(-195 -195)"/><path class="cls-10" d="M370,523.16c-5.17-.08-7.67-4.27-5.89-9.28,4-11.26,8.13-22.48,12.21-33.71,1.36-3.75,2.65-7.52,4.1-11.23,1.65-4.23,4.91-5.93,8.4-4.56,3.28,1.29,4.7,4.68,3.26,8.69-5.44,15.12-11,30.2-16.5,45.3C374.48,521.24,372.6,523.07,370,523.16Z" transform="translate(-195 -195)"/><path class="cls-11" d="M346.13,492.22c3.91,3.7,7.26,6.72,10.45,9.92,3.38,3.39,3.68,6.72,1.08,9.48s-6.35,2.59-9.8-.78q-6.72-6.52-13.26-13.24c-3.74-3.85-3.74-6.88,0-10.68q6.68-6.85,13.53-13.53c3.21-3.12,7-3.3,9.51-.63s2.4,6.05-.69,9.2C353.6,485.36,350,488.53,346.13,492.22Z" transform="translate(-195 -195)"/><path class="cls-11" d="M411.24,492.13c-3.93-3.65-7.34-6.62-10.51-9.81-3.51-3.53-3.68-7-.79-9.76,2.71-2.56,6.14-2.22,9.49,1.06,4.45,4.37,8.88,8.78,13.24,13.24,3.75,3.83,3.8,6.86.09,10.68q-6.64,6.87-13.54,13.52c-3.26,3.15-6.9,3.3-9.5.61s-2.41-6.08,1-9.46C403.85,499,407.2,496,411.24,492.13Z" transform="translate(-195 -195)"/><path class="cls-12" d="M329.88,416.11c-6.37,0-12.74.07-19.11,0-7.3-.08-11.9-4.68-11.91-12q-.08-31.45,0-62.92c0-7.34,4.7-12,11.91-12,6.64,0,13.27,0,19.91,0-6.57,4.21-7.32,10.59-7.2,17.69.27,15.7.12,31.4.07,47.1C323.52,402,322.45,410.25,329.88,416.11Z" transform="translate(-195 -195)"/><path class="cls-13" d="M503.19,393.69c-12.5,0-25,0-37.5,0-1.71,0-3.86.19-5-.71-1.68-1.33-3.6-3.55-3.64-5.43s1.91-4,3.43-5.59c.74-.77,2.51-.75,3.8-.75q38.89-.06,77.8,0c1.3,0,3.08-.06,3.81.7,1.6,1.68,3.64,3.85,3.67,5.84,0,1.79-2.14,3.94-3.84,5.29-1.05.84-3.05.66-4.62.66C528.45,393.71,515.82,393.69,503.19,393.69Z" transform="translate(-195 -195)"/><path class="cls-14" d="M420.39,351.54c12.1,0,24.2,0,36.3,0,1.7,0,3.86-.09,5,.85,1.66,1.39,3.58,3.71,3.52,5.57s-2.18,4-3.89,5.35c-1.05.85-3,.75-4.61.75-24.34,0-48.67.07-73,0-2.13,0-5-.44-6.2-1.83a8.77,8.77,0,0,1-1.63-6.73c.64-3,3.6-4,6.64-3.94Z" transform="translate(-195 -195)"/><path class="cls-15" d="M552.23,351.5c5.72,0,11.44,0,17.16,0,4.4,0,7.76,2.78,7.82,6.29s-3.06,6.33-7.35,6.38q-18,.21-35.91,0c-4.63-.06-6.89-2.51-6.83-6.5s2.56-6.12,7.15-6.16C540.26,351.46,546.24,351.5,552.23,351.5Z" transform="translate(-195 -195)"/><path class="cls-14" d="M497.4,351.55c3.71,0,7.44-.1,11.15,0,4.08.14,6.56,2.42,6.7,5.9a5.89,5.89,0,0,1-6.06,6.5c-7.69.28-15.4.26-23.1,0-3.94-.12-6.5-3-6.44-6.27.08-3.49,2.86-6,7-6.16C490.22,351.46,493.81,351.54,497.4,351.55Z" transform="translate(-195 -195)"/><path class="cls-15" d="M427.91,393.79c-3.31,0-6.63.08-9.94,0-4.85-.14-7.45-2.46-7.4-6.44,0-3.82,2.55-6.15,7.17-6.24q10.35-.19,20.7,0c4.9.08,7.32,2.35,7.29,6.42s-2.5,6.13-7.47,6.26C434.81,393.86,431.36,393.79,427.91,393.79Z" transform="translate(-195 -195)"/><path class="cls-13" d="M343.43,364.21c-2.49-.15-4.89-.11-7.24-.47a5.65,5.65,0,0,1-5.12-6.12c.06-3.08,1.91-5.53,5.05-5.77a91.15,91.15,0,0,1,14.31,0c3.06.24,5,2.49,5.06,5.72s-1.69,5.59-5,6.14A67.24,67.24,0,0,1,343.43,364.21Z" transform="translate(-195 -195)"/><path class="cls-16" d="M386.32,381.21a52.2,52.2,0,0,1,6.38,0c3.71.47,6,3.1,5.86,6.38-.19,3.68-2.56,5.64-5.88,5.91a83.48,83.48,0,0,1-12.75,0c-3.45-.24-5.57-2.47-5.92-5.95-.3-3,2.42-5.95,5.94-6.36A56.38,56.38,0,0,1,386.32,381.21Z" transform="translate(-195 -195)"/><path class="cls-15" d="M343.11,394.1c-2.61-.34-5.53-.07-7.72-1.22-1.9-1-4.09-3.57-4.09-5.45s2.33-5.12,4-5.4a61.18,61.18,0,0,1,15.3-.43c3.3.3,5.26,2.93,4.84,6.61s-3.24,5-6.36,5.5a36.87,36.87,0,0,1-6,.06Z" transform="translate(-195 -195)"/><path class="cls-17" d="M577.32,387.32a6.71,6.71,0,0,1-6.05,6.34,6.64,6.64,0,0,1-6.42-5.94,6.48,6.48,0,0,1,6.23-6.49A6.55,6.55,0,0,1,577.32,387.32Z" transform="translate(-195 -195)"/><path class="cls-18" d="M237.94,484.07c2,0,4-.11,5.95,0,3.47.26,5.79,2.11,6.11,5.63s-1.55,6.1-5.06,6.41a87.19,87.19,0,0,1-14.18.05c-3.49-.28-5.28-2.92-5.26-6.37,0-3.15,2.86-5.55,6.48-5.73C234,484,236,484.07,237.94,484.07Z" transform="translate(-195 -195)"/><path class="cls-19" d="M237.73,526.58c-2.39-.26-4.77-.34-7.08-.81-3.25-.65-5.37-2.95-5.13-6.13a6.38,6.38,0,0,1,6-5.94,63.39,63.39,0,0,1,12.32,0c3.08.33,5.93,1.81,6.18,5.62s-2.1,5.61-5.28,6.4A53,53,0,0,1,237.73,526.58Z" transform="translate(-195 -195)"/><path class="cls-20" d="M237.91,365.8c2.12,0,4.25-.09,6.37,0,3.41.19,5.36,2.17,5.74,5.48a5.72,5.72,0,0,1-5.2,6.42,117.7,117.7,0,0,1-13.93,0,6,6,0,0,1-5.43-6.28,6.12,6.12,0,0,1,6.07-5.66C233.65,365.71,235.78,365.79,237.91,365.8Z" transform="translate(-195 -195)"/><path class="cls-20" d="M237.88,437c-2.26,0-4.52.09-6.77,0-3.52-.18-5.39-2.47-5.54-5.65s1.6-5.91,5-6.18a99,99,0,0,1,14.31,0,5.71,5.71,0,0,1,5.16,6.45c-.41,3.28-2.34,5.28-5.77,5.44-2.12.1-4.25,0-6.37,0Z" transform="translate(-195 -195)"/><path class="cls-19" d="M237.9,407.38c-2.13,0-4.26.09-6.38,0-3.66-.2-6.16-2.76-6.07-6.08a5.88,5.88,0,0,1,5.91-5.83c4.38-.15,8.77-.12,13.15,0a6,6,0,0,1-.24,11.93C242.15,407.44,240,407.38,237.9,407.38Z" transform="translate(-195 -195)"/><path class="cls-19" d="M237.53,348.3c-2,0-4,.08-6,0-3.32-.18-6.18-3.13-6.1-6.16a6,6,0,0,1,6.26-5.79q6-.06,12,0c3.72,0,6.37,2.36,6.42,5.53a6.12,6.12,0,0,1-6.18,6.41C241.79,348.39,239.66,348.3,237.53,348.3Z" transform="translate(-195 -195)"/><path class="cls-19" d="M237.53,466.47c-2,0-4,0-6,0a6,6,0,0,1-6.12-5.93c0-2.67,3-5.9,5.92-6,4.24-.15,8.5-.17,12.74,0a6.06,6.06,0,0,1,6,6.57c-.14,3-2.77,5.28-6.19,5.36C241.78,466.51,239.66,466.47,237.53,466.47Z" transform="translate(-195 -195)"/><path class="cls-21" d="M373.1,266.06q-35.31,0-70.6,0c-1.82,0-4.06.11-5.36-.85-1.7-1.24-3.62-3.47-3.66-5.31s1.78-4.18,3.45-5.41c1.42-1.05,3.78-1.12,5.72-1.12q70.39-.08,140.78,0a20.21,20.21,0,0,1,4.3.57c3.71.83,4.76,3.42,4.37,6.89s-2.7,4.74-5.63,5.2a35.65,35.65,0,0,1-5.57.08Z" transform="translate(-195 -195)"/><path class="cls-21" d="M480.6,266.06c-3.85,0-7.71.07-11.57,0a7,7,0,0,1-7-5.83,6.14,6.14,0,0,1,6-6.65,244.33,244.33,0,0,1,25.1.1c4.63.28,6.49,3.09,6.08,6.8s-3,5.56-7.41,5.59C488.06,266.09,484.33,266.06,480.6,266.06Z" transform="translate(-195 -195)"/><path class="cls-22" d="M258.76,259.69a6.42,6.42,0,0,1-6,6.29,6.49,6.49,0,0,1-6.42-6.32,6.58,6.58,0,0,1,6.24-6.09A6.41,6.41,0,0,1,258.76,259.69Z" transform="translate(-195 -195)"/><path class="cls-23" d="M231.8,253.46c2.93.06,6.13,3.33,6.13,6.25a6.62,6.62,0,0,1-6.41,6.28,6.27,6.27,0,0,1,.28-12.53Z" transform="translate(-195 -195)"/><path class="cls-24" d="M267.59,259.48c.06-3.31,2.92-6.21,6-6.05A6.29,6.29,0,0,1,273.5,266,6.13,6.13,0,0,1,267.59,259.48Z" transform="translate(-195 -195)"/><path class="cls-25" d="M445,477.18h5.36V497.6h12.37l-.62,4.4H445Z" transform="translate(-195 -195)"/><path class="cls-25" d="M470.59,477.18V492c0,4.76,2.45,6.17,5.12,6.17,3.08,0,5-1.67,5-6.17V477.18h5.37V491.7c0,8.49-5,10.65-10.44,10.65s-10.43-2.25-10.43-10.54V477.18Z" transform="translate(-195 -195)"/><path class="cls-25" d="M495.94,496.27,494,502h-5.27l8.43-24.82h6.74L512.69,502h-5.64l-2-5.73Zm7.91-4.4c-1.76-5.24-2.88-8.58-3.48-10.81h0c-.61,2.44-1.85,6.34-3.26,10.81Z" transform="translate(-195 -195)"/><path class="cls-25" d="M523.48,490.21H527c2.42,0,4.11.77,4.11,2.89a2.56,2.56,0,0,1-2.05,2.56v.07c1.72.28,2.69,1.21,2.69,2.81,0,2.34-1.84,3.46-4.46,3.46h-3.79Zm3.28,4.9c1.83,0,2.57-.62,2.57-1.82s-.84-1.61-2.51-1.61h-1.55v3.43Zm.29,5.42c1.87,0,2.92-.63,2.92-2.09s-1-1.9-2.92-1.9h-1.78v4Z" transform="translate(-195 -195)"/><path class="cls-25" d="M533.93,498.66V493.2h1.79v5.22c0,1.53.51,2.25,1.83,2.25a3.11,3.11,0,0,0,2.47-1.45v-6h1.79V502h-1.48l-.14-1.47h-.08a4.14,4.14,0,0,1-3.19,1.69C534.86,502.22,533.93,501,533.93,498.66Z" transform="translate(-195 -195)"/><path class="cls-25" d="M548.91,494.63H545V493.2h5.73V502h-1.8Zm-.58-4.42a1.34,1.34,0,1,1,1.33,1.27A1.24,1.24,0,0,1,548.33,490.21Z" transform="translate(-195 -195)"/><path class="cls-25" d="M558.45,498.92v-8.25h-3v-1.44h4.82V499a1.51,1.51,0,0,0,1.65,1.71,3.83,3.83,0,0,0,1.58-.37l.43,1.33a5.68,5.68,0,0,1-2.42.52C559.52,502.22,558.45,501,558.45,498.92Z" transform="translate(-195 -195)"/><path class="cls-25" d="M566,497.62c0-2.87,1.89-4.63,3.93-4.63a3.54,3.54,0,0,1,2.53,1.07h0l-.09-1.54v-3.29h1.8V502h-1.47l-.14-1.09h-.06a4.1,4.1,0,0,1-2.76,1.31C567.54,502.22,566,500.53,566,497.62Zm6.41,1.92v-4.16a2.94,2.94,0,0,0-2.08-.9c-1.37,0-2.49,1.19-2.49,3.11s.88,3.13,2.35,3.13A2.9,2.9,0,0,0,572.44,499.54Z" transform="translate(-195 -195)"/><path class="cls-25" d="M577,497.59a4.44,4.44,0,0,1,4.52-4.6,3.81,3.81,0,0,1,4,4.15,7.39,7.39,0,0,1-.08,1h-7.24V496.8h6.12l-.39.44c0-1.91-.92-2.86-2.41-2.86s-2.81,1.13-2.81,3.21a3,3,0,0,0,3.25,3.22,4.76,4.76,0,0,0,2.57-.77l.63,1.13a6.22,6.22,0,0,1-3.43,1.05A4.47,4.47,0,0,1,577,497.59Z" transform="translate(-195 -195)"/><path class="cls-25" d="M589.08,493.2h1.49l.16,2h0A4.49,4.49,0,0,1,594.6,493a3.67,3.67,0,0,1,1.73.36l-.39,1.52a4.51,4.51,0,0,0-1.61-.28c-1.26,0-2.48.64-3.45,2.42v5h-1.8Z" transform="translate(-195 -195)"/></svg>